<?xml version="1.0" encoding="UTF-8" standalone="no"?>
<!-- Created with Inkscape (http://www.inkscape.org/) -->

<svg
   width="18.30241cm"
   height="27.404119cm"
   viewBox="0 0 648.51062 971.01215"
   id="svg2"
   version="1.1"
   inkscape:version="1.1 (c4e8f9ed74, 2021-05-24)"
   sodipodi:docname="NCERT.svg"
   xmlns:inkscape="http://www.inkscape.org/namespaces/inkscape"
   xmlns:sodipodi="http://sodipodi.sourceforge.net/DTD/sodipodi-0.dtd"
   xmlns="http://www.w3.org/2000/svg"
   xmlns:svg="http://www.w3.org/2000/svg"
   xmlns:rdf="http://www.w3.org/1999/02/22-rdf-syntax-ns#"
   xmlns:cc="http://creativecommons.org/ns#"
   xmlns:dc="http://purl.org/dc/elements/1.1/">
  <defs
     id="defs4" />
  <sodipodi:namedview
     id="base"
     pagecolor="#ffffff"
     bordercolor="#666666"
     borderopacity="1.0"
     inkscape:pageopacity="0.0"
     inkscape:pageshadow="2"
     inkscape:zoom="0.74149436"
     inkscape:cx="345.24875"
     inkscape:cy="517.87312"
     inkscape:document-units="px"
     inkscape:current-layer="layer1"
     showgrid="false"
     units="px"
     inkscape:window-width="1920"
     inkscape:window-height="1031"
     inkscape:window-x="0"
     inkscape:window-y="0"
     inkscape:window-maximized="1"
     inkscape:pagecheckerboard="0" />
  <metadata
     id="metadata7">
    <rdf:RDF>
      <cc:Work
         rdf:about="">
        <dc:format>image/svg+xml</dc:format>
        <dc:type
           rdf:resource="http://purl.org/dc/dcmitype/StillImage" />
      </cc:Work>
    </rdf:RDF>
  </metadata>
  <g
     inkscape:label="Layer 1"
     inkscape:groupmode="layer"
     id="layer1"
     transform="translate(-175.74471,-66.856206)">
    <path
       style="fill:#000000;fill-opacity:1"
       d="m 501.8498,1035.1716 c -9.9114,-1.4799 -25.0904,-3.5797 -33.7311,-4.6663 -23.22,-2.9198 -29.5949,-5.299 -33.0365,-12.3296 -3.907,-7.9812 -0.8583,-15.9588 8.1864,-21.42196 1.5714,-0.9491 1.3719,-1.2387 -2.1087,-3.06109 -5.8056,-3.0399 -7.9772,-6.7935 -8.0761,-13.9596 -0.064,-4.6554 0.3422,-6.55512 1.8509,-8.64993 4.8061,-6.6734 10.6577,-8.53768 36.8806,-11.74989 12.7812,-1.56567 19.4174,-1.90952 28.6483,-1.48447 25.9164,1.19338 71.9266,5.32556 75.5563,6.78573 1.8071,0.72696 3.0249,4.40132 2.1947,6.62187 -0.2959,0.7915 -1.5333,1.82748 -2.7498,2.30216 -2.231,0.87053 -25.4112,4.75333 -42.8545,7.17823 -5.1917,0.7217 -10.2647,1.7655 -11.2733,2.3195 -4.7372,2.6021 -6.2597,9.8263 -2.8158,13.36089 3.9808,4.08566 3.2859,4.09576 30.9217,-0.4476 8.1325,-1.3369 17.5653,-2.43189 20.9619,-2.43329 5.4144,0 6.2498,0.2372 6.7767,1.94099 0.3501,1.1322 8e-4,2.8836 -0.8369,4.1956 -1.6366,2.56366 -2.7382,2.82096 -36.6051,8.55046 -17.518,2.9636 -21.2552,5.0731 -21.2552,11.9977 0,7.5226 4.0593,8.7503 19.869,6.0093 16.1854,-2.8062 36.8593,-6.1387 38.0822,-6.1387 1.5665,0 3.2604,4.4387 2.5593,6.7061 -0.8261,2.6715 -4.6493,3.5462 -43.0663,9.8548 -11.1591,1.8325 -12.1884,1.7877 -34.0787,-1.4809 z m -115.8154,-5.5647 c -9.6255,-3.1567 -14.667,-8.0123 -19.2347,-18.526 -2.7752,-6.3879 -2.9816,-19.46455 -0.4261,-27.00165 2.576,-7.5979 9.2263,-14.07518 18.1133,-17.64214 6.3898,-2.56468 7.8261,-2.77646 18.48,-2.72475 13.563,0.0658 18.76,1.44692 19.2651,5.11974 0.4534,3.29698 -1.5388,9.52585 -3.0468,9.52585 -0.6963,0 -3.9026,-1.2801 -7.125,-2.8447 -9.0806,-4.40911 -14.9659,-3.56169 -21.7682,3.1344 -4.8867,4.8104 -6.7381,10.2061 -6.7117,19.56049 0.031,10.83086 3.7033,17.99646 11.2636,21.97576 4.5938,2.4179 13.0848,2.3867 19.1585,-0.07 5.5163,-2.2316 7.4473,-1.7352 7.4473,1.9148 0,7.7622 -3.5508,9.4716 -19.5141,9.3942 -7.6003,-0.037 -12.014,-0.5409 -15.9012,-1.8156 z m -88.72735,0.2858 c -0.33886,-0.3478 -0.6161,-14.8597 -0.6161,-32.24876 v -31.61641 h 6.10213 6.10212 l 16.18458,17.07292 c 8.9015,9.39 16.55211,17.07275 17.00134,17.07275 0.44923,0 0.81677,-7.68275 0.81677,-17.07275 v -17.07292 h 5.08277 5.08276 v 32.37931 32.37936 l -5.29809,-0.6391 -5.29808,-0.6391 -16.83316,-17.75 -16.83314,-17.74995 -0.0481,18.25845 -0.0481,18.2585 h -5.39081 c -2.96495,0 -5.66806,-0.2845 -6.0069,-0.6323 z M 593.3395,996.34954 c 0,-28.90136 0.1835,-33.29928 1.4093,-33.78204 0.775,-0.30527 9.8201,-0.16863 20.1,0.30363 21.2931,0.9782 24.1073,1.79668 28.2457,8.21496 4.9685,7.70586 2.5584,19.89066 -4.9835,25.19465 -1.7519,1.232 -3.1852,2.5303 -3.1852,2.885 0,0.3547 1.5229,3.18066 3.3841,6.28006 10.5112,17.5028 12.3263,20.7991 12.3263,22.3851 0,1.5715 -0.8676,1.7456 -8.6972,1.7456 -8.5768,0 -8.7303,-0.041 -11.0892,-2.9176 -1.3156,-1.6047 -4.7207,-6.9229 -7.567,-11.8182 -5.6857,-9.7788 -7.0539,-11.3561 -9.1384,-10.5351 -1.1489,0.4525 -1.3979,2.7527 -1.3979,12.9107 v 12.3602 h -9.7035 -9.7035 z m 31.4918,-6.53669 c 3.994,-4.0993 3.8216,-9.5464 -0.4407,-13.921 -2.6626,-2.73275 -3.7908,-3.22487 -7.3931,-3.22487 h -4.251 v 9.95917 9.9592 h 4.6917 c 3.9535,0 5.1169,-0.4363 7.3931,-2.7725 z m 48.9083,11.78315 v -27.03205 h -8.7793 -8.7793 v -6.16518 -6.16521 h 25.8759 25.87587 v 6.16521 6.16518 h -8.7794 -8.77927 v 27.03205 27.032 h -8.3172 -8.3173 z M 452.8704,939.57121 c -2.2715,-0.64686 -2.3148,-0.84036 -2.5737,-11.51296 -0.2276,-9.38326 -0.047,-11.01735 1.3318,-12.05219 2.1873,-1.64152 11.3833,-1.50702 15.4235,0.22559 2.0016,0.85834 6.2217,1.42274 10.6381,1.42274 5.9761,0 7.7211,-0.34825 9.5021,-1.89635 2.141,-1.86097 2.1482,-1.92291 0.3878,-3.31972 -1.4274,-1.13263 -4.9196,-1.42623 -17.0965,-1.43736 -16.9126,-0.0155 -18.5931,-0.44322 -21.975,-5.59393 -2.6114,-3.97717 -2.7371,-9.32451 -0.3329,-14.16132 2.4584,-4.94584 5.0021,-5.84008 16.6127,-5.84008 5.4904,0 13.1643,-0.27604 17.0531,-0.61342 5.7986,-0.50308 7.0704,-0.90295 7.0704,-2.22291 0,-1.44356 -2.0481,-1.67663 -19.8659,-2.26065 -10.9263,-0.35813 -20.4948,-0.89878 -21.2632,-1.20143 -1.7158,-0.67577 -2.6836,-4.26336 -1.8645,-6.91203 0.5361,-1.73362 1.3467,-1.96544 6.8725,-1.96544 3.4456,0 10.064,-0.27679 14.7075,-0.61508 l 8.4428,-0.61508 -3.218,-3.65587 c -3.7036,-4.20742 -4.1532,-7.8962 -1.5994,-13.12215 2.5378,-5.19326 4.398,-5.67455 21.9931,-5.69017 16.5947,-0.0147 17.9745,0.31751 17.9745,4.32781 0,3.40575 -2.0211,4.16929 -12.5712,4.74912 -12.2022,0.67065 -12.9947,0.86286 -11.4474,2.77648 0.8803,1.08855 3.401,1.41151 11.0172,1.41151 11.2752,0 13.3395,0.84558 12.8496,5.26349 -0.309,2.78711 -0.3409,2.80093 -7.7034,3.33614 -6.6351,0.48234 -6.8545,0.55527 -2.1395,0.71137 2.8895,0.0957 6.3455,0.60001 7.6801,1.12076 2.1103,0.82351 2.389,1.41026 2.1394,4.50534 -0.2305,2.85877 -0.6958,3.61812 -2.3662,3.86161 -1.8384,0.26798 -2.0793,0.85027 -2.0793,5.02669 0,5.67284 -2.0181,10.07296 -5.1872,11.30959 -1.2794,0.49926 -8.849,0.95824 -16.8213,1.01996 -15.1035,0.11694 -19.899,0.65894 -19.9874,2.25902 -0.032,0.57437 6.6911,1.24854 17.0441,1.70917 18.9213,0.84188 20.3079,1.27977 23.3331,7.36893 2.4171,4.86513 2.113,10.94452 -0.7394,14.78281 -4.0379,5.43344 -6.1361,6.01662 -21.6465,6.01662 H 468.535 l -0.9012,2.43298 c -0.4957,1.33813 -0.9013,3.67063 -0.9013,5.18334 0,1.74845 -0.6511,3.10803 -1.7875,3.73222 -1.9759,1.08534 -8.4817,1.15799 -12.0746,0.13485 z m -235.65539,-6.74093 -1.97414,-2.84548 H 203.2441 c -13.02711,0 -15.70331,-0.74168 -19.21649,-5.32567 -1.81225,-2.36461 -1.92988,-3.68457 -1.92988,-21.65592 V 883.8654 l -2.77241,-2.10376 c -3.24149,-2.45969 -3.73289,-6.55179 -1.08241,-9.01365 1.49403,-1.38772 4.926,-1.56975 29.59532,-1.56975 h 27.9053 l 0.90127,2.43298 c 1.33623,3.60717 1.13516,4.72412 -1.40908,7.82747 -2.09577,2.55632 -2.31409,3.64221 -2.3506,11.69181 -0.0469,10.34182 -1.03931,16.55347 -2.95955,18.52432 -1.59804,1.64015 -7.91683,2.69388 -11.15385,1.86003 -2.23788,-0.57648 -2.25387,-0.66605 -2.64567,-14.82116 -0.26658,-9.63142 -0.76737,-14.62421 -1.54709,-15.42448 -1.24887,-1.28178 -11.51938,-1.6439 -14.22949,-0.5017 -1.4556,0.61348 -1.61724,2.38533 -1.61724,17.72827 0,12.59575 0.30162,17.24701 1.15518,17.814 0.63534,0.42204 7.03824,0.98076 14.22866,1.2416 11.16295,0.40494 13.35811,0.73883 15.02115,2.28473 2.74183,2.54872 4.11428,8.27329 2.7307,11.38993 -1.00102,2.2549 -1.54842,2.44972 -6.88314,2.44972 -5.38481,0 -5.93557,-0.20171 -7.76977,-2.84548 z m 62.57745,-4.03109 c -1.17534,-0.90406 -1.6859,-3.43814 -2.14992,-10.67055 -0.3347,-5.21671 -1.01906,-10.01846 -1.52081,-10.67055 -0.50176,-0.65208 -2.66829,-1.18561 -4.81453,-1.18561 -4.29133,0 -5.87738,1.29947 -7.86041,6.4401 -1.69614,4.39693 -4.23812,5.89031 -10.02634,5.89031 -4.41946,0 -5.31735,-0.35697 -8.11162,-3.22488 -2.68115,-2.75181 -3.14207,-3.87822 -3.14207,-7.67872 0,-2.44962 0.68016,-5.63561 1.51147,-7.07999 2.75837,-4.7926 5.55584,-5.71947 17.57596,-5.82328 14.89479,-0.12865 15.50022,-0.34714 15.84332,-5.71766 0.41773,-6.53885 -0.3454,-6.85902 -17.23624,-7.23133 -18.85939,-0.4157 -18.62211,-0.35502 -18.6045,-4.75878 0.0255,-6.37421 -0.61018,-6.19733 23.70372,-6.59573 12.11486,-0.19851 25.3539,-0.0187 29.42011,0.39952 l 7.39311,0.76045 v 4.24121 c 0,4.16091 -0.0787,4.27104 -4.15862,5.81657 l -4.15863,1.57535 -0.46206,22.43711 c -0.38203,18.55029 -0.70221,22.59268 -1.84828,23.33507 -2.00816,1.30083 -9.54958,1.12905 -11.35366,-0.25861 z m 92.67784,-0.71137 c -1.5168,-1.55679 -1.8482,-3.16164 -1.8482,-8.94894 0,-10.71281 -0.5268,-11.55167 -7.75269,-12.34589 -3.88888,-0.42744 -6.88608,-1.34875 -8.42224,-2.58894 l -2.38484,-1.92535 -3.65808,2.48459 c -2.01195,1.36653 -3.65808,2.70614 -3.65808,2.97691 0,0.27078 1.0287,2.57587 2.286,5.12241 1.84975,3.74652 2.86379,4.74952 5.3138,5.25599 5.85809,1.21099 6.26228,1.48058 6.26228,4.17684 0,4.59748 -3.33415,6.74087 -10.4858,6.74087 -3.41444,0 -7.56568,-0.5822 -9.22498,-1.29377 -4.09036,-1.7541 -7.69295,-6.38271 -9.30543,-11.95559 -2.03209,-7.02311 -3.13827,-8.58622 -7.46721,-10.55157 -3.97423,-1.80432 -5.10282,-3.25535 -5.10282,-6.56067 0,-3.13468 2.41185,-4.42649 9.38458,-5.02645 7.35685,-0.63303 9.09819,-1.85411 9.09819,-6.37992 0,-4.10195 -2.57268,-5.65668 -9.36036,-5.65668 -6.8938,0 -8.19828,-0.90686 -8.19828,-5.69937 0,-6.71562 -0.49853,-6.5879 26.77882,-6.86063 l 24.46844,-0.24465 1.0821,-5.00284 c 2.0786,-9.61082 4.4513,-10.6473 24.3742,-10.6473 19.3008,0 23.3976,1.67458 24.6574,10.07866 0.7089,4.72907 1.5241,5.71552 5.3289,6.44811 2.3429,0.45112 3.3489,1.27356 4.0374,3.30053 1.261,3.71275 -0.3995,6.7124 -4.4513,8.04108 l -3.2345,1.06066 -0.5845,9.48493 c -0.3215,5.21671 -0.6334,15.10541 -0.6931,21.97488 -0.06,6.86948 -0.361,13.1651 -0.6695,13.99027 -0.4396,1.17568 -1.9993,1.50032 -7.2083,1.50032 -3.938,0 -7.0993,-0.46391 -7.7563,-1.13819 -0.7958,-0.81673 -1.109,-7.0705 -1.109,-22.14258 0,-19.14413 -0.1497,-21.14342 -1.69,-22.57413 -2.0062,-1.86346 -10.3011,-2.16209 -11.9872,-0.43156 -0.7963,0.81721 -1.109,7.10316 -1.109,22.28959 0,19.88674 -0.1105,21.26481 -1.8483,23.04838 -1.4002,1.43711 -3.0804,1.89698 -6.931,1.89698 -3.8506,0 -5.5309,-0.45987 -6.9311,-1.89698 z m -4.8517,-33.79508 c 1.8592,-0.51136 2.0793,-1.16592 2.0793,-6.18202 0,-3.98478 -0.3821,-5.76061 -1.319,-6.1296 -0.7255,-0.28572 -4.7801,-0.59244 -9.01036,-0.6816 -6.41872,-0.13528 -7.63674,0.0733 -7.36141,1.26063 0.18146,0.78251 0.54983,3.13003 0.81859,5.21672 0.83305,6.46767 1.51087,7.11527 7.43229,7.10075 2.90471,-0.008 6.21699,-0.27032 7.36059,-0.58488 z m 179.7794,34.74171 c -9.0116,-1.36715 -15.415,-7.48238 -14.8644,-14.19534 l 0.2748,-3.34992 6.3388,-0.28282 6.3388,-0.28282 3.4538,3.83967 c 3.6935,4.10626 7.3026,4.97489 11.4225,2.74918 2.6392,-1.42574 3.3734,-2.64695 3.3906,-5.63908 0.024,-4.11178 -2.7005,-5.6709 -11.3166,-6.47692 -4.2858,-0.40093 -8.2721,-1.03325 -8.8584,-1.40515 -1.4282,-0.90594 -1.3625,-6.73135 0.089,-7.90683 0.6354,-0.51447 4.2742,-1.21335 8.0862,-1.55306 4.4877,-0.39992 7.7455,-1.23135 9.2414,-2.3585 4.4266,-3.33543 3.1717,-8.8866 -2.3635,-10.45522 -4.6296,-1.31198 -8.3588,0.28301 -11.1064,4.75014 -2.2039,3.5832 -2.4048,3.68032 -7.612,3.68032 -2.9417,0 -5.8475,-0.51219 -6.4574,-1.13819 -2.9008,-2.97727 0.3044,-12.2372 5.5701,-16.09194 2.7496,-2.01281 4.1669,-2.24182 15.5993,-2.52043 14.5686,-0.35504 17.5827,0.48511 21.7274,6.05608 2.123,2.85355 2.757,4.84604 3.1253,9.82269 l 0.4621,6.24302 3.936,0.29208 c 4.353,0.32303 4.4028,0.25955 5.1989,-6.61764 0.4937,-4.26452 0.3939,-4.50049 -2.6939,-6.37033 -2.6398,-1.59853 -3.2066,-2.50071 -3.2066,-5.10378 0,-5.10319 0.9208,-5.43841 14.9386,-5.43841 11.7308,0 12.7967,0.14609 13.6996,1.87753 1.4227,2.72847 0.1863,6.44488 -2.7331,8.21487 l -2.5389,1.53925 -0.644,22.40184 c -0.7285,25.34408 -0.5431,24.77308 -8.0466,24.77308 -6.2898,0 -7.0175,-1.15399 -7.7912,-12.3548 -0.7301,-10.56911 -1.4805,-11.74092 -7.1581,-11.17723 l -2.9608,0.29395 -0.5148,6.78431 c -0.6154,8.10972 -3.5394,12.85747 -9.5504,15.50767 -4.4872,1.97833 -15.6924,2.92192 -22.4763,1.89273 z m 205.81757,-0.90069 c -21.5223,-0.59097 -23.1002,-1.06385 -28.1486,-8.43615 -2.4774,-3.61774 -2.7629,-4.77992 -2.7852,-11.33642 -0.029,-8.42252 1.4817,-11.92709 7.1764,-16.65108 l 3.5047,-2.90733 15.6258,-0.51296 c 9.7748,-0.32088 16.0182,-0.91594 16.6736,-1.58917 0.5762,-0.59193 0.9085,-2.0858 0.7384,-3.31973 -0.3059,-2.21931 -0.4637,-2.24982 -14.6334,-2.82934 -7.8783,-0.32221 -17.3095,-0.64233 -20.9582,-0.71137 -7.2862,-0.13787 -9.5384,-1.41529 -9.5384,-5.41 0,-1.26691 0.8317,-3.15712 1.8483,-4.20046 1.7326,-1.77824 3.0804,-1.89699 21.5324,-1.89699 21.3527,0 21.8995,-0.12905 21.9056,-5.16929 0.01,-3.78353 3.0762,-8.86435 6.064,-10.03024 1.3035,-0.50867 9.5591,-0.92485 18.3457,-0.92485 15.0424,0 16.159,0.12515 19.1157,2.14228 2.4535,1.67386 3.5347,3.43014 4.9447,8.03237 1.6889,5.51257 2.0443,5.96799 5.5448,7.10553 3.4521,1.12178 3.7633,1.50487 4.0387,4.97158 0.3528,4.44094 -1.3573,6.20303 -6.0199,6.20303 h -3.0578 v 23.26155 23.26155 l -2.3705,0.92502 c -3.4715,1.35462 -9.943,1.12836 -12.0081,-0.41983 -1.672,-1.25353 -1.8129,-2.84599 -2.0747,-23.4508 -0.2013,-15.84599 -0.5938,-22.31018 -1.3862,-22.8272 -1.8349,-1.19722 -11.4191,-0.86179 -12.4379,0.43533 -0.5122,0.65208 -1.0999,4.022 -1.306,7.48871 -0.5732,9.6427 0.081,9.34703 -20.6727,9.34703 h -17.8367 l -2.8433,2.45555 c -2.3736,2.04985 -2.8433,3.13805 -2.8433,6.58656 0,2.99829 0.6112,4.86072 2.229,6.79226 l 2.2289,2.66125 18.5212,0.47424 c 12.3877,0.3172 18.8796,0.84332 19.6038,1.58873 0.5954,0.61296 1.0826,2.29446 1.0826,3.73665 0,3.57987 -3.2305,6.10781 -7.4954,5.86536 -1.8498,-0.10515 -11.8884,-0.42527 -22.308,-0.71137 z M 626.6085,927.16085 c -1.1442,-0.7412 -1.4668,-4.73506 -1.8482,-22.88471 -0.4995,-23.76836 -0.2825,-22.86307 -5.7642,-24.04579 -3.4974,-0.75459 -5.4714,-4.08471 -4.5401,-7.65936 l 0.7335,-2.81549 41.4136,-0.24698 c 29.8076,-0.17776 41.76717,0.0542 42.67507,0.82751 1.7902,1.52485 1.562,5.27619 -0.4462,7.33736 -0.9393,0.96398 -3.4344,2.03608 -5.54487,2.38244 l -3.8371,0.62976 v 7.14959 c 0,7.47283 -1.1018,10.90057 -4.5261,14.0812 -2.4833,2.30654 -2.4427,3.40693 0.3331,9.02907 1.9102,3.8688 2.913,4.81675 6.238,5.89654 3.1681,1.02886 4.01737,1.77651 4.23887,3.7316 0.1571,1.38572 -0.5108,3.44031 -1.54157,4.74246 -1.6703,2.1099 -2.4344,2.2889 -9.3574,2.192 -10.7242,-0.15012 -12.5867,-1.82732 -17.7886,-16.01886 -1.9588,-5.3439 -2.4101,-5.84946 -7.3998,-8.29003 -4.9635,-2.42776 -5.3138,-2.8163 -5.3138,-5.89471 0,-4.20879 1.8423,-5.25937 9.2226,-5.25937 4.6927,0 6.0141,-0.37615 7.8151,-2.22461 2.5273,-2.59388 2.275,-6.7377 -0.5031,-8.26368 -0.984,-0.54053 -7.3711,-0.83306 -14.9042,-0.68262 l -13.1821,0.26325 -0.6246,4.26821 c -0.3436,2.34752 -0.6555,12.39918 -0.6931,22.33701 -0.048,12.70548 -0.3977,18.40664 -1.1775,19.20698 -1.3148,1.34942 -11.6731,1.50939 -13.6773,0.21123 z M 462.5739,814.225 c -3.0497,-0.48111 -10.1193,-1.54546 -15.7104,-2.36523 -15.1409,-2.21998 -23.6891,-4.01386 -36.5035,-7.6605 -65.22508,-18.56128 -125.56668,-60.00614 -168.3683,-115.64164 -5.7829,-7.51687 -19.23186,-26.73962 -19.23186,-27.48831 0,-0.26884 -1.81564,-3.57599 -4.03475,-7.34923 -18.83498,-32.02576 -33.54758,-73.97466 -39.33159,-112.14315 -5.5782,-36.81028 -4.72637,-76.84391 2.32091,-109.07668 4.01486,-18.36313 5.37686,-23.69454 8.84429,-34.62 12.24985,-38.59788 27.4456,-68.3743 51.54359,-101.00087 14.26938,-19.31948 46.7132,-50.4779 68.76315,-66.03881 13.86337,-9.78355 15.17866,-10.60375 34.30346,-21.39124 33.1452,-18.69583 77.08,-32.55507 116.9437,-36.88994 17.9794,-1.95513 61.4683,-1.43064 76.7027,0.92507 38.7625,5.99385 76.1618,18.34056 106.6239,35.19989 20.1957,11.17737 38.8727,23.58442 50.16507,33.32441 2.6224,2.26194 4.9505,4.11262 5.1735,4.11262 0.7817,0 9.5661,8.16265 20.4149,18.96986 22.986,22.89808 43.2764,49.67928 55.7247,73.55078 11.9935,22.99945 20.3314,44.16603 27.445,69.67166 11.124,39.88504 13.8606,88.06427 7.4618,131.36627 -11.4398,77.4145 -50.7206,149.04379 -108.5121,197.87358 -27.12997,22.92291 -57.46717,41.63999 -87.79317,54.16549 -18.9641,7.83272 -48.2239,16.48903 -63.4168,18.76144 -4.0039,0.59887 -11.4385,1.73022 -16.5212,2.51411 -10.9544,1.68946 -64.389,2.59001 -73.007,1.23042 z m 44.626,-26.37156 c 1.7782,-0.51843 0.1991,-1.73369 -9.8987,-7.61822 -21.2138,-12.36245 -39.575,-28.95993 -53.9417,-48.76011 -9.6383,-13.28359 -15.353,-23.37285 -19.4539,-34.34532 -6.2345,-16.68126 -8.0007,-26.93328 -8.0007,-46.44074 0,-13.54096 0.278,-16.18626 2.8127,-26.76145 1.547,-6.45434 2.5621,-12.15136 2.2558,-12.66004 -0.945,-1.56927 -3.7175,-1.04587 -11.2367,2.12126 -6.8906,2.90238 -7.8206,3.04786 -19.7077,3.08261 -12.0049,0.0351 -12.7899,-0.0859 -20.7932,-3.20588 -23.40273,-9.12319 -38.32433,-25.92595 -47.23767,-53.19299 -2.4591,-7.52275 -2.63227,-9.0459 -2.58791,-22.76384 0.0531,-16.39932 1.00119,-21.51079 6.50695,-35.07821 4.44548,-10.95471 4.45002,-11.79864 0.0653,-12.16961 -12.61898,-1.06768 -34.13158,15.20493 -41.77257,31.59769 -5.15467,11.05867 -6.33635,17.19751 -6.3902,33.19725 -0.0401,11.9124 0.30768,15.68469 2.13732,23.18355 3.09055,12.66678 8.99818,26.82909 17.0358,40.83973 6.51178,11.35089 27.91196,35.7956 39.12584,44.69212 5.39582,4.28079 6.50857,6.26227 4.61062,8.21022 -2.0767,2.13143 -5.28657,-0.0862 -22.32111,-15.42093 -23.3503,-21.02033 -38.50251,-44.21621 -45.699,-69.95872 -4.34708,-15.54987 -5.13252,-21.67361 -5.08023,-39.60816 0.0529,-18.14881 1.06494,-24.39409 5.8453,-36.0715 3.36273,-8.21447 12.3203,-20.95811 19.58125,-27.85763 11.5237,-10.95007 28.08167,-16.50408 45.44869,-15.2448 l 9.00635,0.65306 6.70402,-6.56278 c 9.31025,-9.11408 15.49455,-14.23516 25.30375,-20.95346 9.6936,-6.63909 10.8237,-7.94146 17.2959,-19.93327 2.6215,-4.85733 8.5092,-14.40216 13.0837,-21.21073 l 8.3173,-12.37921 -6.7793,-6.52561 c -9.8068,-9.43973 -27.4103,-20.06636 -39.4011,-23.78498 -11.00668,-3.41345 -17.89522,-4.65301 -28.67487,-5.15991 -36.01763,-1.69369 -67.75195,11.3518 -95.90883,39.42665 -24.5634,24.49184 -36.94931,47.67827 -42.84134,80.19899 -2.66562,14.71272 -2.28028,44.39918 0.8372,64.49752 7.1991,46.41243 19.74865,80.03326 43.83518,117.43651 20.09427,31.20378 45.95945,58.24102 77.44329,80.95256 27.93838,20.15395 61.72627,35.87253 96.39567,44.84455 16.6497,4.30872 38.4577,8.15265 50.5424,8.90872 8.8677,0.5548 31.4373,0.4371 33.5364,-0.17489 z m 88.8074,-23.9271 c 14.7074,-2.48461 21.6808,-4.6349 35.1207,-10.82954 15.9513,-7.35217 19.5498,-9.36307 30.7367,-17.17577 15.6351,-10.91933 26.7867,-20.34906 41.32627,-34.94541 45.6669,-45.84517 74.3249,-103.99903 83.4588,-169.35785 3.0211,-21.61829 2.9974,-58.76106 -0.051,-79.67341 -4.3173,-29.61767 -12.2171,-55.96 -25.3855,-84.64982 -5.9089,-12.87367 -15.0404,-29.16933 -16.3453,-29.16933 -0.5286,0 -0.8973,4.94202 -0.9023,12.09328 -0.016,23.26004 -4.0646,47.81377 -10.7433,65.15733 -3.9424,10.23786 -11.4897,25.42325 -16.4399,33.07738 -8.8516,13.68666 -26.84867,29.73037 -43.35417,38.64867 -9.6105,5.19276 -13.856,6.91832 -23.2543,9.45154 -3.5579,0.959 -8.5483,2.30494 -11.0897,2.99098 -2.8599,0.77206 -4.6207,1.77111 -4.6207,2.62184 0,0.75596 1.8714,2.78168 4.1587,4.50159 12.3339,9.2746 17.8054,16.68138 22.2844,30.16666 1.9481,5.86515 2.201,8.29867 2.1685,20.86684 -0.041,15.97555 -1.4617,22.55994 -7.5707,35.09424 -8.2806,16.98996 -20.0863,29.18264 -35.8271,37.00141 -12.5762,6.24686 -24.1542,9.90662 -34.3615,10.86149 -4.295,0.40178 -8.2812,1.21511 -8.8582,1.80741 -2.6865,2.75724 16.2233,17.41456 26.1032,20.23301 17.2393,4.91794 41.3017,-0.59444 61.3006,-14.04321 13.282,-8.93183 22.2511,-18.48173 32.69597,-34.81314 13.0742,-20.44281 19.3909,-36.36566 24.3082,-61.27569 2.2496,-11.39636 3.0734,-13.36113 5.6021,-13.36113 3.4815,0 3.9426,3.53474 1.863,14.28256 -5.2248,27.0036 -12.559,45.27842 -27.5755,68.71057 -19.00887,29.66201 -46.95407,50.1581 -76.17557,55.86993 -16.5713,3.23915 -29.4777,2.4726 -38.474,-2.28505 -1.8666,-0.98715 -5.3971,-2.66745 -7.8456,-3.73402 -5.4034,-2.35374 -14.1247,-9.11124 -18.4454,-14.29203 -1.7485,-2.09661 -5.153,-7.42159 -7.5655,-11.83329 l -4.3863,-8.02127 -7.6609,-2.3983 c -4.2135,-1.31906 -7.9591,-2.3983 -8.3235,-2.3983 -1.0394,0 -16.9561,-6.23946 -23.0977,-9.05445 -5.052,-2.31556 -7.0235,-2.60939 -22.1794,-3.30554 -9.149,-0.42024 -21.001,-1.50358 -26.3379,-2.40742 -5.3369,-0.90384 -11.7751,-1.68561 -14.307,-1.73728 -4.5752,-0.0933 -4.6111,-0.0706 -5.8338,3.70004 -0.6767,2.08668 -1.6689,8.82057 -2.2049,14.9642 -3.0476,34.93116 9.955,68.10298 36.4202,92.9137 11.9832,11.23404 16.3,14.399 27.4576,20.13096 17.8055,9.14724 29.0313,12.41565 58.2749,16.9669 7.2704,1.13151 25.2396,0.45584 35.9367,-1.35128 z m -9.1367,-136.94239 c 17.9307,-2.79582 31.2954,-9.36384 43.9043,-21.57644 17.7833,-17.22445 25.449,-36.58877 22.3088,-56.35439 -2.0128,-12.66974 -4.503,-18.47627 -10.9636,-25.56471 -8.7222,-9.56976 -22.1521,-15.54792 -34.9818,-15.57171 -20.0314,-0.0372 -31.7732,13.51207 -33.6881,38.87388 -0.3347,4.43252 -1.0908,8.37408 -1.6803,8.75904 -3.5589,2.32414 -18.393,-1.24811 -29.872,-7.19359 -12.7612,-6.60961 -24.0015,-17.33944 -36.6102,-34.94752 -2.8757,-4.01589 -6.0458,-7.75058 -7.0448,-8.29932 -2.6847,-1.47467 -27.3671,-1.23633 -35.3567,0.34141 -12.0146,2.37257 -21.6573,6.88812 -31.8849,14.93129 -2.6249,2.06427 -5.0214,4.41881 -5.3255,5.23232 -0.3655,0.9775 1.4184,3.62404 5.2604,7.80407 5.1781,5.63374 7.804,9.6965 16.657,25.77138 1.3128,2.38359 5.8442,7.53086 10.07,11.43837 33.5162,30.99233 72.501,51.4259 107.4901,56.34005 11.2452,1.57938 11.6879,1.5797 21.7173,0.0158 z m 25.4959,-82.16006 c -4.0407,-4.92872 -2.6782,-10.72737 3.0976,-13.18285 5.7339,-2.43764 11.1444,1.25588 11.1444,7.60778 0,5.23756 -3.1406,8.49333 -8.1931,8.49333 -2.9484,0 -4.1196,-0.56505 -6.0489,-2.91826 z m 7.7362,-3.20138 c 1.563,-1.93288 0.8108,-4.78803 -1.2613,-4.78803 -2.5246,0 -3.9898,2.77436 -2.4627,4.66296 1.5048,1.86093 2.2988,1.8876 3.724,0.12507 z m -217.8523,63.45324 c 17.9442,-4.48048 32.3333,-19.60259 33.7336,-35.45197 1.1903,-13.47327 -7.2205,-27.49388 -21.3627,-35.6111 -8.4138,-4.82925 -8.3704,-6.58587 0.3971,-16.05902 13.8554,-14.97047 29.5988,-22.09722 58.7393,-26.59021 7.9841,-1.23101 9.3087,-1.72304 12.1506,-4.51311 7.6643,-7.52476 18.3247,-27.98831 21.0614,-40.42911 1.9471,-8.85159 1.5941,-22.38789 -0.6766,-25.94113 l -1.5637,-2.44682 -7.2157,1.84171 c -6.2028,1.58319 -9.2324,1.7635 -21.5833,1.28453 -20.7943,-0.8064 -29.6126,1.31586 -57.2897,13.78757 -25.9511,11.69396 -42.9468,22.85486 -59.69912,39.20374 -15.8087,15.42795 -24.05262,29.3472 -27.18636,45.90223 -1.65015,8.71744 -0.61006,28.20595 1.95864,36.69977 4.11181,13.59637 11.49707,25.75753 20.55674,33.85037 16.6162,14.84296 30.1486,18.92484 47.9798,14.47255 z M 390.882,582.90934 c -6.6975,-6.87402 0.4716,-18.05887 9.1974,-14.34927 3.6453,1.54969 5.9837,6.04237 5.246,10.07857 -1.3267,7.25827 -9.2499,9.60104 -14.4434,4.2707 z m 8.7357,-5.98324 c 0.7751,-1.2632 0.6546,-2.00435 -0.5224,-3.2123 -2.7684,-2.84141 -6.8988,0.87211 -4.403,3.95863 1.437,1.77703 3.576,1.45291 4.9254,-0.74633 z m 165.5839,-43.88559 c 1.5514,-4.69504 4.778,-12.37784 7.1703,-17.07288 10.7701,-21.13744 17.0996,-59.59248 15.3404,-93.20094 -1.6567,-31.64807 -8.5287,-56.37293 -20.025,-72.04755 -6.1801,-8.42643 -16.4076,-17.06913 -25.6736,-21.69559 -16.0913,-8.03425 -30.2755,-10.35208 -48.8519,-7.98286 -18.8489,2.40398 -35.8599,12.91454 -42.4261,26.21382 -4.8272,9.77696 -6.6026,24.04755 -4.2789,34.39262 2.4527,10.91911 10.5125,22.02254 19.1426,26.37128 4.8995,2.46883 6.0796,2.66217 15.9193,2.60804 9.728,-0.0535 11.2926,-0.32209 18.4828,-3.17268 10.3778,-4.11432 13.4264,-4.59337 14.6234,-2.29789 1.9372,3.71515 3.8591,16.74371 3.8529,26.11877 -0.01,13.53967 -3.355,27.26789 -11.0039,45.14778 l -2.965,6.93096 1.5442,4.9252 c 0.8494,2.70887 3.216,8.12638 5.2592,12.03891 10.4432,19.99811 23.8629,32.97037 40.903,39.53924 9.0457,3.48706 9.6942,3.14664 12.9863,-6.81623 z M 470.2213,370.83078 c -4.4697,-2.55759 -5.6693,-7.54236 -3.0609,-12.71938 1.5556,-3.08748 3.0684,-3.86181 7.5449,-3.86181 4.6965,0 7.7376,3.45954 7.7376,8.80223 0,3.09888 -0.5364,4.66317 -2.1238,6.19373 -2.827,2.72589 -6.9682,3.37599 -10.0978,1.58523 z m 5.7428,-6.60994 c 1.5356,-1.89897 0.5127,-4.28029 -1.8385,-4.28029 -1.0484,0 -2.1477,0.64566 -2.4427,1.43481 -0.531,1.42032 1.0965,4.25614 2.4427,4.25614 0.3838,0 1.2112,-0.63479 1.8385,-1.41066 z m 167.9813,110.22912 c 38.0961,-15.69978 63.67257,-49.114 69.09047,-90.26254 3.689,-28.01737 -0.3617,-53.93686 -12.5077,-80.03347 -13.41657,-28.8266 -28.77147,-46.43225 -56.82307,-65.15249 -19.8398,-13.2401 -61.3112,-29.83553 -86.5569,-34.63709 -2.7131,-0.516 -5.9725,-1.14697 -7.2432,-1.40217 -34.5374,-6.93601 -77.0627,-6.79198 -110.8967,0.37562 -73.2352,15.5146 -139.57351,58.85203 -182.94069,119.51138 -9.02776,12.62746 -20.78337,33.29737 -18.93725,33.29737 0.23057,0 4.68102,-2.50783 9.88989,-5.57295 20.63717,-12.14383 41.26232,-20.15434 60.2983,-23.419 12.36126,-2.11996 36.49701,-2.83701 46.8387,-1.39156 26.65405,3.72545 50.75525,16.26991 70.03815,36.45417 3.2891,3.44287 6.692,6.25975 7.5619,6.25975 1.8191,0 2.0989,-0.80308 3.5845,-10.28889 1.6614,-10.60787 6.905,-20.52679 15.371,-29.07605 11.766,-11.8817 25.783,-17.76591 46.5163,-19.52698 19.7974,-1.68159 34.9505,0.57444 48.8421,7.27175 12.0533,5.81098 19.4206,11.5186 27.5843,21.37014 6.6814,8.06286 7.1039,8.39637 8.7268,6.88895 2.5061,-2.32772 3.5549,-7.34251 3.5451,-16.94987 -0.015,-15.13923 -5.9309,-29.96533 -16.5922,-41.58552 -12.7915,-13.94205 -26.3856,-21.24938 -49.0026,-26.3407 -8.4115,-1.8935 -12.349,-2.18953 -29.5725,-2.2233 -24.7562,-0.0486 -35.6205,1.78204 -58.7233,9.89465 -11.26,3.95398 -14.2837,4.03975 -14.2837,0.40517 0,-2.8513 4.9066,-5.47157 18.9449,-10.11719 25.0417,-8.28692 32.9624,-9.59474 58.2208,-9.61315 17.5798,-0.0128 20.4074,0.21779 30.0345,2.44926 43.4125,10.06269 75.1891,38.67329 80.9253,72.86256 1.2904,7.69113 1.3471,10.26079 0.3868,17.54712 -1.4158,10.74305 -3.515,16.53276 -9.2809,25.59811 -2.513,3.95096 -4.5691,8.1706 -4.5691,9.37698 0,1.20637 0.8004,4.58106 1.7786,7.4993 1.9817,5.91165 4.855,20.48221 6.5661,33.296 1.0222,7.6558 1.828,9.82683 8.8002,23.71232 4.2212,8.40671 9.4029,19.76657 11.5148,25.24411 2.1119,5.47755 4.528,10.74545 5.369,11.70646 2.0457,2.33744 4.8378,1.7905 17.5013,-3.42825 z M 515.1769,148.06625 c -8.1403,-3.74374 -5.1032,-16.71251 3.9139,-16.71251 3.906,0 6.0822,3.59316 4.1247,6.81033 -1.0043,1.65057 -0.8974,2.19056 0.7446,3.76064 1.0545,1.00833 1.9173,2.40469 1.9173,3.10299 0,3.28781 -6.2806,5.07126 -10.7005,3.03855 z m 152.136,-1.01016 c -0.6096,-0.7538 -0.9724,-2.35438 -0.8063,-3.55685 0.2704,-1.95785 0.8657,-2.21631 5.696,-2.47324 4.6562,-0.24767 5.3056,-0.50717 4.7469,-1.89699 -2.2675,-5.64132 -1.0689,-7.77527 4.3675,-7.77527 2.8407,0 4.2814,0.64341 6.4698,2.88948 2.4324,2.49659 2.7412,3.36713 2.2704,6.40232 -0.325,2.09576 -1.5102,4.37377 -2.9379,5.64697 -2.0927,1.86626 -3.4163,2.13411 -10.5456,2.13411 -5.9813,0 -8.4478,-0.36501 -9.2608,-1.37053 z M 445.1076,130.90071 c -4.0079,-1.46594 -5.14,-2.77753 -5.161,-5.97907 -0.02,-3.0396 1.9956,-3.50482 9.1671,-2.116 7.6139,1.47451 11.4287,0.19956 11.8997,-3.977 0.2593,-2.29952 -0.3769,-2.90856 -6.4333,-6.15819 -3.6965,-1.98346 -8.0886,-4.95079 -9.7602,-6.59405 -2.583,-2.5393 -3.0392,-3.64971 -3.0392,-7.397928 0,-9.182019 4.0797,-12.378149 15.8,-12.378149 7.699,0 10.076,1.13829 10.076,4.82523 0,2.94127 -2.508,4.182299 -8.4876,4.199969 -10.0231,0.0296 -9.545,3.61514 1.2781,9.585958 9.1475,5.04643 11.1193,7.5072 11.1193,13.87673 0,5.66842 -1.7006,8.62941 -6.5688,11.43762 -4.272,2.46429 -14.0872,2.79733 -19.8901,0.67488 z m -188.56262,-1.62808 c -0.25802,-1.20291 -0.58368,-9.0278 -0.72367,-17.38864 -0.23639,-14.117408 -0.40283,-15.394858 -2.33385,-17.912157 -2.53414,-3.30355 -2.63157,-5.4418 -0.34474,-7.5659 1.02943,-0.95617 1.98902,-3.57985 2.3605,-6.45399 0.48439,-3.74775 1.29008,-5.47962 3.56292,-7.658727 2.7541,-2.640515 3.28327,-2.783863 8.49813,-2.302046 5.04022,0.465681 17.5684,5.048613 20.5784,7.527783 1.55938,1.28438 1.45914,4.02195 -0.199,5.43435 -1.08241,0.92199 -2.79851,0.65978 -8.55143,-1.3066 -10.97062,-3.74984 -15.89804,-2.89589 -13.19554,2.28686 1.4405,2.76254 3.80901,3.06182 18.48335,2.33554 15.10511,-0.74759 21.73088,-0.15732 22.54049,2.00809 0.29027,0.77638 -0.29668,2.99039 -1.30435,4.92003 -1.61555,3.093679 -1.83213,5.366739 -1.83213,19.228447 0,17.85469 -0.41958,19.2717 -5.55648,18.7656 -2.64734,-0.26082 -3.29947,-0.79784 -3.99014,-3.28582 l -0.82561,-2.97405 -6.2888,0.12857 c -6.76992,0.1384 -9.49501,-1.14873 -13.19198,-6.23091 -3.4227,-4.70514 -1.93489,-14.61691 2.86301,-19.073388 2.5994,-2.41441 11.38491,-3.28048 13.00121,-1.28165 1.81947,2.250108 0.36199,5.369318 -3.22828,6.908958 -4.30682,1.84693 -5.66701,5.01522 -3.566,8.30627 2.09181,3.27664 7.0619,3.48271 9.17894,0.38057 1.49763,-2.19452 1.86793,-8.85292 0.84545,-15.201968 l -0.57281,-3.55685 h -8.82383 c -4.8531,0 -10.209,-0.51408 -11.90198,-1.142409 -5.38141,-1.99722 -5.81494,-0.72661 -6.56343,19.236587 l -0.65517,17.47431 -3.89702,0.29013 c -3.42758,0.25517 -3.95354,0.0267 -4.36616,-1.89699 z m 84.97497,0.19784 c -0.34606,-0.57468 -3.7195,-0.70482 -8.75689,-0.33783 -7.74087,0.56394 -8.4266,0.45706 -12.39977,-1.93273 -3.34353,-2.01109 -4.40743,-3.29843 -5.18952,-6.27946 -0.82572,-3.14729 -0.70016,-4.32481 0.78149,-7.32878 1.33298,-2.70255 1.55122,-4.15972 0.89115,-5.95026 -1.24411,-3.37482 -0.18966,-7.5671 2.67526,-10.636228 l 2.46682,-2.642669 h -2.88515 c -5.13441,0 -7.62617,-1.52099 -7.62617,-4.65507 0,-1.85723 0.54646,-2.9664 1.61725,-3.28257 0.88948,-0.26264 9.62013,-0.77258 19.40145,-1.1332 13.64394,-0.50303 18.1082,-0.3797 19.17588,0.52975 1.91692,1.63283 1.77524,6.3297 -0.22557,7.47802 -1.4337,0.82284 -1.65329,2.981099 -1.93484,19.016987 l -0.3176,18.08881 h -3.55545 c -1.95551,0 -3.80876,-0.42065 -4.11834,-0.93477 z m -4.21059,-11.01157 c 2.02125,-1.99254 2.30768,-3.19757 2.64573,-11.13065 0.42452,-9.961738 -0.54941,-13.269117 -3.7651,-12.786178 -1.34166,0.20149 -2.21234,1.29071 -2.75323,3.44427 -0.59214,2.357588 -1.61271,3.501938 -4.05859,4.550828 -2.69955,1.15767 -3.07395,1.64064 -2.15386,2.77849 0.61252,0.7575 2.30242,1.37726 3.75533,1.37726 2.04641,0 2.77219,0.53383 3.22099,2.36911 0.89158,3.64592 -0.028,4.86024 -4.56918,6.03387 -4.68655,1.21118 -5.88479,2.43215 -4.30464,4.38628 2.36516,2.92494 8.50974,2.40021 11.98255,-1.02328 z M 385.66,129.26806 c -0.5373,-0.67873 -1.1324,-2.08769 -1.3223,-3.13103 -0.3112,-1.70899 -1.0766,-1.89699 -7.7236,-1.89699 -8.5569,0 -11.8683,-1.34253 -14.9679,-6.06835 -1.65161,-2.51817 -2.11381,-4.54193 -2.11381,-9.25548 v -6.03262 l 3.6617,-1.50373 c 3.51071,-1.441718 5.38121,-4.096428 4.23161,-6.005568 -0.2988,-0.4962 -2.4165,-1.190489 -4.70606,-1.542879 -4.38506,-0.67491 -6.42345,-2.81575 -5.36824,-5.63805 1.02901,-2.75223 4.71169,-3.31578 21.6679,-3.31578 h 16.5941 l 1.0624,2.39309 c 0.896,2.01837 0.7539,2.82138 -0.9079,5.12826 -1.7659,2.451409 -2.0459,4.540109 -2.6994,20.133617 l -0.7292,17.39845 -2.8511,0.28556 c -1.5681,0.15705 -3.2908,-0.26977 -3.8282,-0.9485 z m -4.1421,-16.58383 c 1.8765,-2.12071 2.086,-3.20269 1.8482,-9.54571 -0.2112,-5.635098 -0.6171,-7.376428 -1.9117,-8.202078 -2.0503,-1.307589 -3.0012,0.028 -3.8364,5.388158 -0.4396,2.82213 -1.5801,4.73004 -4.4201,7.39448 -3.3887,3.1792 -3.6801,3.77347 -2.5407,5.18248 3.0648,3.79025 7.391,3.70368 10.8607,-0.21733 z m 22.6587,16.5354 c -0.4112,-0.65209 -0.9555,-8.44159 -1.2097,-17.31 -0.4319,-15.070918 -0.6042,-16.318698 -2.6371,-19.098667 -2.5392,-3.47209 -2.0591,-6.69124 1.12,-7.51016 1.1309,-0.29132 4.5258,-0.39902 7.5443,-0.23933 5.038,0.26655 5.5606,0.50311 6.3731,2.88495 0.728,2.13416 0.5262,2.98661 -1.1369,4.8036 -1.9207,2.098379 -2.022,3.039539 -2.022,18.793917 0,11.63473 -0.331,16.92464 -1.109,17.72311 -1.455,1.49336 -5.9706,1.46242 -6.9227,-0.0474 z m 111.5427,-0.2279 c -0.6286,-0.77743 -1.3276,-4.29871 -1.5533,-7.82507 -0.6819,-10.65366 -0.6947,-10.67977 -5.236,-10.67977 -3.5965,0 -4.0999,0.293 -5.2962,3.0826 -1.8542,4.32374 -4.8541,4.55221 -8.7595,0.66712 -1.6865,-1.67765 -3.5704,-4.2994 -4.1866,-5.8261 -0.9782,-2.42381 -0.8688,-3.12486 0.8623,-5.52803 2.6845,-3.726608 2.5584,-7.663978 -0.3278,-10.239637 -2.9024,-2.59013 -2.952,-5.39307 -0.1289,-7.29157 1.8022,-1.21198 5.0385,-1.42191 18.6142,-1.20749 14.4221,0.2278 16.5563,0.4609 17.443,1.90523 0.767,1.24933 0.6356,2.39153 -0.5457,4.74247 -1.1961,2.38043 -1.6985,6.936379 -2.1718,19.695407 -0.4794,12.92532 -0.9307,16.96596 -2.0392,18.25849 -1.7422,2.03138 -5.13,2.15642 -6.6745,0.24635 z m -3.3175,-28.56549 c 1.7228,-0.678528 1.9372,-4.247898 0.3528,-5.874028 -0.6099,-0.626009 -2.6892,-1.138199 -4.6207,-1.138199 -3.4809,0 -3.5117,0.0333 -3.5117,3.793979 0,3.686348 0.09,3.793968 3.1589,3.793968 1.7374,0 3.8167,-0.25907 4.6207,-0.57572 z m 26.4275,28.31767 c -6.4797,-3.33663 -9.1403,-12.82428 -5.9157,-21.09553 2.2073,-5.66217 5.0758,-7.30678 13.4961,-7.737828 7.7436,-0.3964 10.1425,-1.64069 8.4608,-4.38853 -0.8182,-1.336989 -2.9968,-1.739619 -11.993,-2.216519 -6.0463,-0.32052 -11.0825,-0.64064 -11.1917,-0.71137 -1.3522,-0.87596 -2.0252,-4.21342 -1.1775,-5.83906 0.9591,-1.83941 1.7494,-1.90617 19.6489,-1.65987 l 18.6495,0.25662 0.8884,2.5946 c 0.732,2.13791 0.5308,2.98515 -1.1426,4.81345 -1.8556,2.027239 -2.0817,3.523209 -2.618,17.323757 -0.7083,18.2279 -1.0769,19.60196 -5.1492,19.19614 -3.9854,-0.39717 -5.3047,-3.30408 -5.3218,-11.72661 -0.01,-3.91802 -0.4728,-7.15816 -1.1226,-7.82506 -1.4183,-1.45566 -6.4234,-1.46459 -9.5189,-0.017 -2.1427,1.00201 -2.3684,1.58179 -2.1228,5.45383 0.251,3.95728 0.575,4.4832 3.7403,6.07061 2.8114,1.40995 3.4655,2.254 3.4655,4.47197 0,4.67703 -5.1486,6.0885 -11.0757,3.03639 z m 62.5965,-0.2877 c -1.281,-0.7847 -1.6199,-2.31219 -1.6299,-7.3459 -0.019,-9.62288 -0.4613,-10.62342 -4.6946,-10.62342 -3.2244,0 -5.2763,1.61115 -6.7959,5.33601 -0.027,0.0656 -1.0184,0.42559 -2.2037,0.79995 -1.7751,0.56066 -2.8748,-0.0904 -6.2379,-3.6928 -4.784,-5.12441 -5.2341,-8.21977 -1.7398,-11.96317 1.9709,-2.111348 2.1981,-2.901508 1.4304,-4.973818 -0.5019,-1.35504 -1.7642,-2.931499 -2.8051,-3.503239 -2.3637,-1.29835 -2.6767,-7.10045 -0.4307,-7.98501 0.8039,-0.31665 9.3212,-0.57572 18.9272,-0.57572 h 17.4654 l 0.6094,2.49203 c 0.3902,1.59529 0.064,3.43983 -0.9065,5.12593 -1.2316,2.13986 -1.5185,5.453019 -1.5295,17.663447 -0.015,17.01049 -0.6826,19.63221 -5.0903,20.00421 -1.5132,0.12772 -3.4791,-0.21361 -4.3685,-0.7585 z m -3.0439,-28.729408 c 1.264,-0.94858 1.5382,-1.93325 1.0708,-3.84469 -0.5861,-2.396739 -0.9215,-2.550159 -4.988,-2.281679 -3.826,0.2526 -4.3987,0.57156 -4.6784,2.605919 -0.5623,4.088278 4.8729,6.314318 8.5956,3.52045 z m 26.5274,25.517788 c -6.7977,-7.56898 -6.2406,-13.1981 1.4192,-14.33903 5.3591,-0.79823 7.6732,-1.92567 7.6732,-3.73839 0,-1.85336 -2.9439,-3.31973 -6.6647,-3.31973 -1.6993,0 -4.0139,-0.66443 -5.1435,-1.47652 -2.1063,-1.5142 -2.7951,-5.529318 -1.1298,-6.585668 1.5189,-0.9635 1.0613,-2.002619 -1.3862,-3.147149 -1.6697,-0.78083 -2.3103,-1.82243 -2.3103,-3.75652 0,-4.60875 1.102,-4.95249 15.8775,-4.95249 h 13.6597 l 0.6157,2.51803 c 0.9113,3.72625 -0.675,5.47653 -5.4898,6.05758 -5.0574,0.61033 -6.3633,1.62077 -3.9133,3.028009 5.7564,3.30631 8.1478,9.850358 5.9571,16.301158 -1.149,3.38355 -4.9629,7.18029 -8.3906,8.35298 -0.6596,0.22566 -0.4888,1.36135 0.4998,3.32353 2.169,4.30484 1.1892,5.94637 -3.549,5.94637 -3.4803,0 -4.3852,-0.49339 -7.725,-4.21216 z m 51.6488,2.84642 c -0.6074,-0.75115 -1.3445,-4.62467 -1.638,-8.60781 -0.451,-6.12005 -0.8549,-7.45814 -2.6075,-8.63671 -3.0119,-2.02552 -6.8469,-0.77023 -7.9977,2.61785 -1.9112,5.62692 -7.3246,4.38025 -12.1754,-2.80391 -2.051,-3.03763 -2.4684,-4.46277 -1.978,-6.75422 l 0.6215,-2.90425 9.399,-0.013 c 12.0253,-0.0166 13.5576,-0.43498 13.5576,-3.701948 0,-4.260419 -1.4065,-4.821539 -12.0855,-4.821539 -10.8713,0 -12.3072,-0.65794 -11.7778,-5.39648 l 0.2978,-2.66571 18.2626,-0.25721 18.2627,-0.25721 1.0712,2.41318 c 0.909,2.04761 0.7674,2.83512 -0.935,5.19839 -1.8775,2.60644 -2.0063,3.840949 -2.0063,19.232547 0,11.52772 -0.3317,16.78779 -1.109,17.58553 -1.5267,1.56691 -5.8215,1.43046 -7.1622,-0.22755 z m 24.44357,0.0268 c -7.57777,-3.45673 -10.93747,-13.33883 -7.44867,-21.90884 1.87107,-4.59629 5.89727,-6.776368 13.94387,-7.550268 7.5088,-0.72217 9.5057,-2.02919 7.8757,-5.155019 -0.9133,-1.7515 -2.0343,-1.953 -12.2101,-2.19473 -9.21737,-0.21897 -11.37467,-0.54357 -12.16387,-1.83025 -0.7091,-1.15612 -0.5452,-2.21285 0.6286,-4.05145 l 1.5879,-2.48738 17.64357,0.25748 c 16.7356,0.24423 17.7097,0.35964 18.9268,2.24247 1.1299,1.74785 1.0605,2.27563 -0.5813,4.41782 -1.7122,2.23402 -1.8645,3.81973 -1.8645,19.403527 0,18.47539 -0.2038,19.24708 -5.0828,19.24708 -4.1135,0 -5.0814,-1.52318 -5.0929,-8.01477 -0.01,-3.15611 -0.2709,-7.3578 -0.5896,-9.33709 l -0.5795,-3.59871 -5.6172,0.27898 c -4.9974,0.24821 -5.7702,0.55967 -7.004,2.82278 -1.9684,3.61049 -0.469,7.39047 3.8819,9.78662 2.7034,1.48881 3.4451,2.46327 3.4471,4.52882 0,1.9536 -0.6084,2.87021 -2.368,3.55684 -3.0289,1.18191 -3.9484,1.13001 -7.333,-0.41391 z m 12.5725,-50.385857 c -6.7053,-7.838239 -7.1474,-10.875747 -1.5827,-10.875747 3.6413,0 7.702,3.03791 10.6872,7.995297 2.5671,4.26304 1.7028,6.2321 -2.7353,6.2321 -2.8515,0 -4.0344,-0.62249 -6.3692,-3.35165 z"
       id="path6544"
       inkscape:connector-curvature="0" />
  </g>
</svg>
